<svg xmlns="http://www.w3.org/2000/svg" xmlns:xlink="http://www.w3.org/1999/xlink" version="1.1" x="0px" y="0px" viewBox="0 0 64 64" enable-background="new 0 0 64 64" xml:space="preserve" style="max-width:100%" height="100%">
    <g style="" fill="#ffffff">
        <path fill="#ffffff" d="M60.571,16.389H21.456c-0.973,0-1.762,0.789-1.762,1.762l-3.72,27.698c0,0.973,0.789,1.762,1.762,1.762   h39.116c0.973,0,1.762-0.789,1.762-1.762l3.72-27.698C62.333,17.178,61.544,16.389,60.571,16.389z M55.09,41.595l-9.039-10.899   l12.759-8.595L55.09,41.595z M55.893,19.913l-16.721,11.72l-12.518-11.72H55.893z M23.218,21.659l9.124,8.953L19.498,41.595   L23.218,21.659z M35.087,32.85l2.953,2.407c0.324,0.264,0.718,0.396,1.113,0.396c0.385,0,0.771-0.126,1.091-0.378l3.019-2.381   l9.334,11.194H21.99L35.087,32.85z" style=""></path>
        <g style="" fill="#ffffff">
            <path fill="#ffffff" d="M15.034,19.179H3.062c-0.77,0-1.395-0.625-1.395-1.395v0c0-0.77,0.625-1.395,1.395-1.395h11.972    c0.77,0,1.395,0.625,1.395,1.395v0C16.429,18.554,15.804,19.179,15.034,19.179z" style=""></path>
            <path fill="#ffffff" d="M14.414,24.294H6.161c-0.77,0-1.395-0.625-1.395-1.395v0c0-0.77,0.625-1.395,1.395-1.395h8.253    c0.77,0,1.395,0.625,1.395,1.395v0C15.809,23.669,15.184,24.294,14.414,24.294z" style=""></path>
            <path fill="#ffffff" d="M13.571,29.408H9.038c-0.77,0-1.395-0.625-1.395-1.395v0c0-0.77,0.625-1.395,1.395-1.395h4.533    c0.77,0,1.395,0.625,1.395,1.395v0C14.966,28.783,14.341,29.408,13.571,29.408z" style=""></path>
        </g>
    </g>
</svg>